<svg
   width="636"
   height="506"
   viewBox="0 0 636 506"
   xmlns="http://www.w3.org/2000/svg">
  <path
   style="fill:#ffffff;stroke-width:1"
   d="M 407,458 c -2,-1 -7,-5 -11,-10 -13,-13 -60,-62 -65,-68 -4,-5 -5,-6 -5,-12 0,-4 0,-43 0,-87 0,-72 0,-80 2,-82 2,-3 12,-14 39,-42 35,-36 39,-41 40,-45 0,-2 1,-17 1,-34 l 0,-32 h 182 V 253 457 l -2,2 -2,2 -88,-0 c -74,-0 -88,-0 -91,-1 z"
   id="path469" />
  <path
   style="fill:#1396c5"
   d="M 37,496 c -11,-4 -20,-16 -20,-26 0,-8 2,-14 9,-22 6,-7 50,-53 78,-82 8,-8 27,-28 42,-44 15,-16 34,-36 42,-43 15,-15 17,-19 16,-22 0,-1 -9,-10 -18,-21 -10,-10 -23,-24 -29,-31 -7,-7 -21,-22 -31,-33 C 40,79 23,60 20,55 c -2,-4 -3,-7 -3,-12 0,-7 0,-8 3,-14 6,-11 15,-17 29,-16 12,0 15,2 39,28 23,25 55,59 66,71 16,17 72,77 79,84 4,4 12,13 20,21 23,24 24,27 25,41 0,8 0,9 -2,14 -2,3 -6,9 -10,13 -4,4 -12,13 -17,18 -10,10 -14,15 -44,46 -38,40 -54,57 -65,69 -6,7 -25,26 -41,43 -34,35 -35,36 -48,37 -5,0 -9,-0 -12,-1 z M 390,496 c -6,-1 -15,-6 -19,-11 -4,-4 -25,-26 -74,-79 -15,-16 -32,-34 -38,-41 -16,-17 -18,-22 -14,-30 1,-2 8,-10 15,-17 29,-30 32,-33 34,-40 2,-6 3,-19 2,-27 -2,-15 -7,-23 -42,-60 -4,-4 -8,-9 -9,-11 -4,-7 -2,-10 25,-38 24,-25 57,-59 87,-91 16,-17 30,-31 33,-33 11,-7 4,-7 106,-7 57,-0 93,0 97,1 13,2 24,10 29,21 l 3,6 1,116 c 0,64 1,160 1,214 l 0,98 -3,6 c -3,7 -10,15 -17,18 -9,5 -7,5 -114,5 -54,-0 -101,-0 -103,-1 z m 198,-37 2,-2 0,-204 0,-204 -2,-2 -2,-2 h -87 -87 l -2,2 -2,2 0,30 c 0,18 0,31 -1,34 -1,5 -2,6 -45,50 -18,19 -33,35 -34,37 -2,3 -2,10 -2,88 0,69 0,85 1,88 1,2 8,10 17,19 8,9 23,24 33,35 24,25 28,29 32,31 2,1 30,1 91,1 l 87,-0 2,-2 z M 461,351 c -7,-1 -12,-4 -22,-9 -5,-3 -10,-5 -13,-6 -6,-2 -13,-1 -22,3 -5,2 -10,4 -12,4 -10,0 -16,-12 -10,-19 3,-3 13,-8 24,-12 6,-2 17,-3 24,-1 2,1 10,4 16,8 11,6 13,7 19,7 l 7,0 14,-7 c 12,-6 15,-7 21,-8 8,-1 17,0 25,3 3,1 8,3 10,4 7,2 11,7 11,12 0,7 -5,12 -12,12 -2,0 -7,-2 -12,-4 -8,-3 -10,-4 -16,-4 -7,0 -7,0 -18,6 -6,3 -13,7 -15,8 -5,2 -15,3 -20,2 z m -4,-70 c -1,-0 -7,-2 -12,-5 -5,-3 -12,-6 -15,-8 -9,-5 -16,-4 -29,1 -12,5 -15,5 -20,-0 -2,-3 -3,-4 -3,-7 0,-6 3,-10 10,-13 3,-1 10,-4 14,-6 7,-3 9,-3 16,-3 9,-0 13,1 29,10 17,9 22,9 40,-1 19,-10 29,-11 50,-3 7,3 13,6 15,7 4,3 5,7 3,12 -3,9 -10,10 -25,4 -7,-3 -11,-4 -16,-4 -7,-0 -10,1 -24,9 -11,6 -21,8 -33,6 z m -3,-74 c -3,-1 -9,-4 -13,-7 -16,-9 -22,-10 -36,-3 -11,5 -17,5 -22,0 -6,-6 -4,-15 5,-19 23,-10 23,-10 33,-10 11,-0 11,0 34,12 6,3 8,4 13,4 6,0 7,-1 21,-7 14,-7 15,-8 22,-8 9,-0 14,1 28,6 13,5 16,8 16,15 0,4 -1,5 -3,8 -5,5 -10,5 -21,-0 -7,-3 -10,-4 -15,-4 -6,0 -7,1 -21,7 l -15,7 -11,0 c -8,0 -12,-0 -16,-2 z"
   id="path361" />
  </svg>
